<svg width="12" height="6" viewBox="0 0 12 6" fill="none" xmlns="http://www.w3.org/2000/svg">
<g id="Color/Black">
<path id="Mask" d="M6.00005 5.5C5.89655 5.5 5.79355 5.4685 5.70605 5.4045L0.206055 1.4045L0.794555 0.596001L6.00005 4.382L11.2061 0.596001L11.7946 1.4045L6.29455 5.4045C6.20655 5.4685 6.10355 5.5 6.00005 5.5Z" fill="#898989"/>
<mask id="mask0_96_996" style="mask-type:luminance" maskUnits="userSpaceOnUse" x="0" y="0" width="12" height="6">
<path id="Mask_2" d="M6.00005 5.5C5.89655 5.5 5.79355 5.4685 5.70605 5.4045L0.206055 1.4045L0.794555 0.596001L6.00005 4.382L11.2061 0.596001L11.7946 1.4045L6.29455 5.4045C6.20655 5.4685 6.10355 5.5 6.00005 5.5Z" fill="white"/>
</mask>
<g mask="url(#mask0_96_996)">
<g id="Color/Black_2">
<rect id="Rectangle Copy" y="-4" width="12" height="12" fill="#898989"/>
</g>
</g>
</g>
</svg>
