<svg width="331" height="216" viewBox="0 0 331 216" fill="none" xmlns="http://www.w3.org/2000/svg">
<ellipse cx="165.5" cy="179" rx="165.5" ry="37" fill="#F2F1F9"/>
<path d="M276.435 166.901C298.61 171.727 322.107 156.996 322.382 148.269C322.657 139.543 301.107 157.659 297.985 148.777C294.864 139.896 321.433 136.332 321.808 126.942C322.182 117.552 298.318 139.724 296.47 133.726C294.631 127.728 317.646 113.529 314.225 106.63C310.804 99.7312 296.895 124.017 292.933 120.739C288.971 117.47 305.027 94.8397 295.355 93.1027C285.683 91.3657 287.364 112.177 283.993 116.405C280.622 120.633 280.822 96.3883 275.062 98.2482C269.302 100.108 279.165 123.46 275.27 126.606C271.374 129.752 265.573 109.014 259.03 113.799C252.488 118.584 269.352 131.817 267.745 137.995C266.139 144.165 255.193 125.721 249.325 130.604C243.457 135.479 257.857 162.862 276.435 166.901Z" fill="#52D5BA"/>
<path d="M292.983 99.8376C292.983 99.8376 282.936 139.519 270.65 175.84" stroke="#4CA5A2" stroke-width="1.6286" stroke-miterlimit="10" stroke-linecap="round"/>
<path d="M312.952 131.226C312.952 131.226 285.433 144.606 276.41 156.782C276.41 156.782 276.743 135.077 262.693 120.231" stroke="#4CA5A2" stroke-width="1.6286" stroke-miterlimit="10" stroke-linecap="round"/>
<path d="M306.459 113.931C306.459 113.931 285.933 133.21 279.498 147.622C279.498 147.622 281.171 121.567 276.893 107.794" stroke="#4CA5A2" stroke-width="1.6286" stroke-miterlimit="10" stroke-linecap="round"/>
<path d="M316.864 150.842C316.864 150.842 279.648 156.913 274.97 162.976C274.97 162.976 264.665 140.239 251.872 134.168" stroke="#4CA5A2" stroke-width="1.6286" stroke-miterlimit="10" stroke-linecap="round"/>
<path d="M278.283 156.651C284.01 143.82 301.764 116.479 317.038 120.272C334.651 124.648 294.764 151.719 294.764 151.719C294.764 151.719 322.182 136.282 329.59 148.417C337.007 160.552 296.67 162.19 296.67 162.19C296.67 162.19 317.979 160.765 314.783 168.598C311.595 176.431 277.384 169.417 273.88 176.898C270.384 184.37 274.354 165.443 278.283 156.651Z" fill="#52D5BA"/>
<path d="M274.412 173.628C279.781 159.928 287.872 147.032 298.493 136.683C302.397 132.881 306.65 129.432 311.228 126.441" stroke="#4CA5A2" stroke-width="1.6286" stroke-miterlimit="10" stroke-linecap="round"/>
<path d="M274.604 173.906C286.124 159.896 303.637 150.891 321.658 150.448" stroke="#4CA5A2" stroke-width="1.6286" stroke-miterlimit="10" stroke-linecap="round"/>
<path d="M274.787 174.054C284.218 168.425 295.471 166.385 306.392 167.098" stroke="#4CA5A2" stroke-width="1.6286" stroke-miterlimit="10" stroke-linecap="round"/>
<path d="M269.951 172.53C271.924 166.828 278.733 162.682 284.018 160.543C296.962 155.308 317.921 150.916 327.734 164.14C330.856 168.352 331.83 174.038 330.265 179.02C327.41 188.122 317.088 192.26 308.299 193.514C296.545 195.185 279.94 192.76 272.132 182.903C270.783 181.199 269.743 179.208 269.468 177.069C269.269 175.464 269.468 173.948 269.951 172.53Z" fill="#52D5BA"/>
<path d="M271.716 175.914C271.716 175.914 307.791 166.335 327.551 172.89" stroke="#4CA5A2" stroke-width="1.6286" stroke-miterlimit="10" stroke-linecap="round"/>
<path d="M319.519 182.461C319.519 182.461 310.188 171.367 304.902 170.876C304.902 170.876 312.418 163.616 318.137 161.986" stroke="#4CA5A2" stroke-width="1.6286" stroke-miterlimit="10" stroke-linecap="round"/>
<path d="M304.678 157.822C304.678 157.822 294.073 165.18 293.832 171.686C293.832 171.686 303.296 180.887 306.85 188.179" stroke="#4CA5A2" stroke-width="1.6286" stroke-miterlimit="10" stroke-linecap="round"/>
<path d="M286.132 161.796C286.132 161.796 282.037 169.744 282.67 173.702C282.67 173.702 288.613 181.723 291.801 188.917" stroke="#4CA5A2" stroke-width="1.6286" stroke-miterlimit="10" stroke-linecap="round"/>
<path d="M93.9034 149.021C71.7852 153.854 48.347 139.099 48.073 130.359C47.799 121.618 69.2944 139.763 72.4079 130.867C75.5214 121.971 49.0195 118.401 48.6459 108.997C48.2722 99.5916 72.0758 121.799 73.919 115.792C75.7539 109.784 52.7972 95.5622 56.2095 88.6521C59.6219 81.7421 73.4956 106.067 77.4476 102.784C81.3996 99.5096 65.3839 76.8427 75.0315 75.1029C84.6792 73.3631 83.002 94.208 86.3646 98.4427C89.7271 102.677 89.5279 78.3938 95.2733 80.2567C101.019 82.1196 91.1801 105.509 95.0657 108.66C98.9513 111.811 104.738 91.0403 111.264 95.833C117.79 100.626 100.969 113.879 102.571 120.067C104.174 126.247 115.092 107.774 120.945 112.665C126.798 117.548 112.435 144.975 93.9034 149.021Z" fill="#52D5BA"/>
<path d="M77.3979 81.8486C77.3979 81.8486 87.4192 121.594 99.6738 157.974" stroke="#4CA5A2" stroke-width="1.6286" stroke-miterlimit="10" stroke-linecap="round"/>
<path d="M57.48 113.289C57.48 113.289 84.9284 126.69 93.9284 138.885C93.9284 138.885 93.5963 117.146 107.611 102.275" stroke="#4CA5A2" stroke-width="1.6286" stroke-miterlimit="10" stroke-linecap="round"/>
<path d="M63.956 95.9642C63.956 95.9642 84.4302 115.275 90.8481 129.71C90.8481 129.71 89.1793 103.613 93.4469 89.8174" stroke="#4CA5A2" stroke-width="1.6286" stroke-miterlimit="10" stroke-linecap="round"/>
<path d="M53.5776 132.935C53.5776 132.935 90.6986 139.016 95.3647 145.089C95.3647 145.089 105.643 122.316 118.404 116.234" stroke="#4CA5A2" stroke-width="1.6286" stroke-miterlimit="10" stroke-linecap="round"/>
<path d="M92.0603 138.754C86.3481 125.902 68.6387 98.5166 53.4034 102.316C35.8351 106.69 75.6211 133.805 75.6211 133.805C75.6211 133.805 48.2724 118.344 40.883 130.498C33.4854 142.652 73.7199 144.294 73.7199 144.294C73.7199 144.294 52.4652 142.866 55.6534 150.711C58.8333 158.557 92.957 151.524 96.4524 159.025C99.9395 166.517 95.9791 147.56 92.0603 138.754Z" fill="#52D5BA"/>
<path d="M95.921 155.758C90.5658 142.037 82.4957 129.119 71.9015 118.754C68.0076 114.947 63.765 111.492 59.1985 108.496" stroke="#4CA5A2" stroke-width="1.6286" stroke-miterlimit="10" stroke-linecap="round"/>
<path d="M95.7301 156.037C84.2393 142.003 66.7706 132.984 48.7955 132.541" stroke="#4CA5A2" stroke-width="1.6286" stroke-miterlimit="10" stroke-linecap="round"/>
<path d="M95.5475 156.184C86.1406 150.546 74.9155 148.503 64.0225 149.217" stroke="#4CA5A2" stroke-width="1.6286" stroke-miterlimit="10" stroke-linecap="round"/>
<path d="M100.371 154.658C98.4035 148.947 91.6119 144.794 86.3398 142.652C73.4292 137.408 52.5233 133.009 42.7345 146.255C39.621 150.473 38.6496 156.168 40.2105 161.158C43.0583 170.276 53.3535 174.42 62.1211 175.676C73.8443 177.35 90.408 174.921 98.1959 165.048C99.5409 163.341 100.579 161.347 100.853 159.205C101.052 157.596 100.853 156.078 100.371 154.658Z" fill="#52D5BA"/>
<path d="M98.6109 158.048C98.6109 158.048 62.6274 148.455 42.9171 155.02" stroke="#4CA5A2" stroke-width="1.6286" stroke-miterlimit="10" stroke-linecap="round"/>
<path d="M50.9291 164.605C50.9291 164.605 60.2364 153.493 65.5085 153.001C65.5085 153.001 58.0113 145.73 52.3074 144.097" stroke="#4CA5A2" stroke-width="1.6286" stroke-miterlimit="10" stroke-linecap="round"/>
<path d="M65.7327 139.919C65.7327 139.919 76.3102 147.289 76.551 153.805C76.551 153.805 67.1109 163.021 63.5657 170.325" stroke="#4CA5A2" stroke-width="1.6286" stroke-miterlimit="10" stroke-linecap="round"/>
<path d="M84.2309 143.907C84.2309 143.907 88.3157 151.868 87.6847 155.832C87.6847 155.832 81.7567 163.866 78.5768 171.071" stroke="#4CA5A2" stroke-width="1.6286" stroke-miterlimit="10" stroke-linecap="round"/>
<path d="M270.701 166.259C270.201 166.259 269.775 165.85 269.775 165.354V157.384C269.775 153.21 266.361 149.824 262.153 149.824C257.946 149.824 254.532 153.225 254.532 157.384V165.354C254.532 165.85 254.12 166.259 253.605 166.259H248.485C247.985 166.259 247.573 165.85 247.573 165.354V157.384C247.573 149.4 254.12 142.905 262.168 142.905C270.216 142.905 276.763 149.4 276.763 157.384V165.354C276.763 165.85 276.351 166.259 275.836 166.259H270.701Z" fill="#F05022"/>
<path d="M262.168 143.81C269.701 143.81 275.836 149.897 275.836 157.37V165.34H270.716V157.37C270.716 152.699 266.891 148.889 262.168 148.889C257.46 148.889 253.62 152.685 253.62 157.37V165.34H248.5V157.37C248.5 149.897 254.621 143.81 262.168 143.81ZM262.168 142C253.62 142 246.661 148.904 246.661 157.385V165.354C246.661 166.361 247.485 167.179 248.5 167.179H253.62C254.635 167.179 255.459 166.361 255.459 165.354V157.385C255.459 153.721 258.461 150.729 262.168 150.729C265.861 150.729 268.877 153.721 268.877 157.385V165.354C268.877 166.361 269.701 167.179 270.716 167.179H275.836C276.852 167.179 277.675 166.361 277.675 165.354V157.385C277.675 148.889 270.716 142 262.168 142Z" fill="white"/>
<path d="M245.072 199.51C243.836 199.51 242.836 198.517 242.836 197.291V166.653C242.836 165.427 243.836 164.435 245.072 164.435H279.264C280.5 164.435 281.501 165.427 281.501 166.653V197.276C281.501 198.503 280.5 199.495 279.264 199.495H245.072V199.51Z" fill="#F05022"/>
<path d="M279.264 165.354C279.985 165.354 280.574 165.938 280.574 166.668V197.291C280.574 198.006 279.985 198.605 279.264 198.605H245.072C244.336 198.605 243.763 198.021 243.763 197.291V166.653C243.763 165.938 244.351 165.34 245.072 165.34H279.264V165.354ZM279.264 163.53H245.072C243.336 163.53 241.924 164.931 241.924 166.653V197.276C241.924 198.999 243.336 200.4 245.072 200.4H279.264C281 200.4 282.413 198.999 282.413 197.276V166.653C282.413 164.931 281 163.53 279.264 163.53Z" fill="white"/>
<path d="M279.264 165.354H272.585V189.497C272.585 190.212 271.996 190.796 271.261 190.796H243.748V197.276C243.748 197.992 244.336 198.59 245.057 198.59H279.25C279.971 198.59 280.559 198.006 280.559 197.276V166.653C280.574 165.938 279.985 165.354 279.264 165.354Z" fill="#F05022"/>
<path d="M279.264 165.354H276.763V193.146C276.763 193.876 276.175 194.445 275.439 194.445H243.748V197.291C243.748 198.006 244.336 198.605 245.057 198.605H279.25C279.971 198.605 280.559 198.021 280.559 197.291V166.653C280.574 165.938 279.985 165.354 279.264 165.354Z" fill="#F05022"/>
<path d="M267.685 180.286C267.685 177.265 265.214 174.813 262.153 174.813C259.108 174.813 256.621 177.265 256.621 180.286C256.621 182.622 258.093 184.622 260.182 185.41V187.979C260.182 189.059 261.065 189.935 262.153 189.935C263.242 189.935 264.125 189.059 264.125 187.979V185.41C266.214 184.622 267.685 182.622 267.685 180.286Z" fill="#F05022" stroke="white" stroke-width="1.2486" stroke-miterlimit="10" stroke-linecap="round" stroke-linejoin="round"/>
<path d="M158.219 172.025L102.231 171.771C95.4964 171.741 90.0635 166.324 90.0888 159.671L90.684 21.0003C90.7143 14.3424 96.1976 8.97022 102.937 9.00012L158.925 9.25428C165.66 9.28418 171.092 14.7012 171.067 21.3542L170.472 160.025C170.447 166.682 164.958 172.055 158.219 172.025Z" fill="#070054"/>
<path d="M158.845 14.0434L147.989 13.9936C146.531 13.9886 145.346 15.1996 145.341 16.7046L145.33 18.6481C145.325 20.1531 144.14 21.3641 142.682 21.3592L121.521 21.2645C120.063 21.2595 118.893 20.0335 118.898 18.5285L118.908 16.585C118.913 15.08 117.737 13.859 116.285 13.849L112.466 13.8291L102.967 13.7843C98.2507 13.7643 94.4068 17.5269 94.3866 22.1864L93.8065 157.538C93.7864 162.197 97.5899 165.99 102.306 166.01L158.184 166.264C162.9 166.284 166.744 162.521 166.764 157.862L167.344 22.5103C167.37 17.8558 163.561 14.0633 158.845 14.0434Z" fill="white"/>
<ellipse cx="130.578" cy="91" rx="15.1835" ry="15" fill="#070054"/>
<path d="M122.566 92.4847C122.704 92.6999 123.541 93.5885 124.632 94.8232C125.937 96.2987 127.407 97.9611 127.579 98.1494C127.896 98.4954 128.128 98.2566 128.601 97.3512C129.256 96.0974 130.606 93.3495 132.503 90.8413C134.4 88.3332 137.245 85.5657 137.923 85.0468C138.6 84.5278 138.916 84.182 138.465 84.0089C138.013 83.8359 134.486 86.2243 132.428 88.3588C130.218 90.6509 127.824 94.3929 127.23 94.4811C126.755 94.5517 124.455 92.9003 123.803 92.5122C123.045 92.0617 122.207 91.9244 122.566 92.4847Z" fill="white"/>
<path d="M217.191 181.829L212.119 177.883L219.527 168.443L227.005 174.134L226.585 174.748C224.689 177.467 216.743 188.433 214.841 189.763C212.718 191.255 217.191 181.829 217.191 181.829Z" fill="#FF4267"/>
<path d="M214.2 189.626C214.11 189.558 216.833 185.987 220.279 181.652C223.724 177.317 226.591 173.862 226.681 173.93C226.771 173.998 224.048 177.57 220.603 181.904C217.157 186.239 214.29 189.701 214.2 189.626Z" fill="#263238"/>
<path d="M218.094 182.797C218.073 182.913 217.749 182.953 217.357 182.947C216.964 182.94 216.64 182.892 216.619 182.783C216.605 182.674 216.929 182.538 217.357 182.538C217.784 182.545 218.108 182.688 218.094 182.797Z" fill="#263238"/>
<path d="M217.949 183.656C217.915 183.764 217.549 183.758 217.122 183.696C216.695 183.635 216.337 183.553 216.337 183.438C216.337 183.329 216.716 183.227 217.177 183.288C217.639 183.356 217.984 183.553 217.949 183.656Z" fill="#263238"/>
<path d="M224.393 176.738C224.338 176.752 224.221 176.54 224.083 176.172C223.952 175.804 223.793 175.266 223.814 174.632C223.835 173.998 224.09 173.446 224.372 173.133C224.655 172.819 224.924 172.744 224.944 172.785C224.979 172.84 224.793 172.989 224.607 173.303C224.42 173.61 224.248 174.094 224.227 174.646C224.207 175.205 224.31 175.716 224.365 176.097C224.427 176.472 224.448 176.724 224.393 176.738Z" fill="#263238"/>
<path d="M217.115 182.088C217.074 181.979 217.281 181.802 217.55 181.632C217.818 181.461 218.073 181.352 218.156 181.434C218.232 181.516 218.08 181.781 217.77 181.972C217.467 182.169 217.157 182.19 217.115 182.088Z" fill="#263238"/>
<path d="M216.743 181.556C216.66 181.482 216.791 181.175 217.039 180.875C217.288 180.575 217.556 180.384 217.653 180.446C217.749 180.507 217.618 180.814 217.356 181.127C217.102 181.447 216.826 181.638 216.743 181.556Z" fill="#263238"/>
<path d="M193.727 119.271C193.727 119.271 182.377 149.091 183.907 154.662C185.437 160.234 216.044 182.355 216.044 182.355L224.355 170.528C224.355 170.528 200.482 151.846 200.41 150.813C200.332 149.781 209.889 125.006 209.889 125.006L193.727 119.271Z" fill="#263238"/>
<path d="M215.518 173.262C215.512 173.267 215.476 173.247 215.409 173.206C215.326 173.155 215.228 173.088 215.109 173.012C214.83 172.823 214.453 172.567 213.972 172.24C212.99 171.56 211.579 170.568 209.858 169.311C206.416 166.796 201.738 163.208 196.777 159.007C195.536 157.959 194.332 156.921 193.18 155.909C192.606 155.403 192.042 154.902 191.489 154.417C190.942 153.926 190.378 153.43 190.032 152.781C189.665 152.127 189.68 151.36 189.82 150.711C189.954 150.052 190.12 149.433 190.28 148.83C190.606 147.629 190.931 146.515 191.231 145.497C191.82 143.484 192.306 141.848 192.647 140.688C192.802 140.136 192.926 139.696 193.019 139.374C193.055 139.236 193.092 139.124 193.117 139.032C193.143 138.955 193.154 138.914 193.159 138.919C193.164 138.919 193.159 138.96 193.143 139.042C193.123 139.134 193.102 139.251 193.071 139.389C193.004 139.696 192.895 140.141 192.751 140.713C192.456 141.863 191.996 143.514 191.422 145.549C191.138 146.566 190.823 147.685 190.507 148.886C190.352 149.489 190.187 150.113 190.063 150.757C189.939 151.396 189.929 152.076 190.265 152.669C190.585 153.262 191.128 153.742 191.675 154.228C192.229 154.713 192.792 155.209 193.371 155.715C194.523 156.722 195.728 157.759 196.968 158.802C201.925 162.999 206.576 166.607 209.987 169.163C211.688 170.415 213.068 171.437 214.045 172.163C214.51 172.506 214.877 172.777 215.151 172.976C215.264 173.063 215.357 173.134 215.435 173.191C215.492 173.231 215.523 173.257 215.518 173.262Z" fill="#455A64"/>
<path d="M212.747 176.866C212.685 176.82 214.261 174.668 216.267 172.061C218.272 169.454 219.947 167.374 220.009 167.42C220.071 167.466 218.494 169.618 216.484 172.225C214.484 174.831 212.809 176.907 212.747 176.866Z" fill="#455A64"/>
<path d="M213.77 62.5614C214.783 64.565 215.316 66.3029 217.326 67.3354C218.231 67.8005 219.337 68.0663 219.885 68.9199C220.479 69.8502 220.2 71.1944 220.949 72.0071C222.04 73.1879 224.278 72.232 225.503 73.2696C226.599 74.1999 226.247 76.1933 227.425 77.0111C228.092 77.4711 228.997 77.3689 229.751 77.6603C230.992 78.1356 231.581 79.5515 231.741 80.8549C231.87 81.8976 231.813 82.9965 231.348 83.9472C230.888 84.8979 229.979 85.6748 228.919 85.7822C227.513 85.9304 225.916 84.9695 224.779 85.7975C224.376 86.094 224.138 86.554 223.828 86.9424C223.12 87.8318 221.957 88.3481 220.815 88.2765C219.673 88.2049 218.582 87.5507 217.993 86.5795C217.207 85.2864 217.259 83.4974 216.107 82.5058C215.507 81.9845 214.69 81.8004 213.941 81.5244C213.192 81.2484 212.421 80.7884 212.194 80.0319C211.977 79.2959 211.543 78.8257 211.114 78.1919C210.54 77.3434 209.77 78.381 209.01 77.9618C208.25 77.5427 208.54 76.7249 208.473 75.8611" fill="#263238"/>
<path d="M200.4 91.5322L190.59 88.2865C190.59 88.2865 186.253 100.635 184.925 100.758C177.565 101.423 169.689 99.0101 166.929 98.0543C166.65 97.7425 166.329 97.3693 165.972 96.9093C165.668 96.5157 165.435 96.0711 165.28 95.6008C165.094 95.0283 164.872 94.2616 164.887 93.8016C164.903 93.2343 164.215 92.9429 163.895 93.3518C163.574 93.7607 163.497 95.3197 164.22 96.9962C164.949 98.6727 162.375 97.3387 161.429 96.8684C160.484 96.3982 157.486 95.0795 157.114 95.2532C156.561 95.5088 156.736 96.1375 157.693 96.5873C158.659 97.0422 161.419 98.5756 161.145 99.0561C160.876 99.5314 156.09 97.0729 156.09 97.0729C156.09 97.0729 155.155 96.3828 154.819 96.9298C154.214 97.9162 159.491 100.155 159.998 100.359C160.349 100.497 160.07 101.034 159.698 100.865C159.315 100.692 154.984 98.3047 154.359 99.3014C153.878 100.068 158.685 101.187 159.305 102.174C159.925 103.16 155.749 100.957 155.32 101.709C155.16 101.99 155.077 102.22 157.667 103.14C158.923 103.59 161.285 104.137 163.424 104.597L163.414 104.622C163.414 104.622 189.23 116.041 194.797 105.031C200.699 93.362 200.4 91.5322 200.4 91.5322Z" fill="#E5BAAB"/>
<path d="M210.101 81.3094L214.385 81.3861L217.786 91.0312L215.016 102.082C214.205 105.312 217.879 111.768 217.786 115.33L193.753 119.179L193.246 103.304L193.236 102.772L184.92 98.6675L187.664 92.0177C191.887 82.2346 199.263 81.6417 199.263 81.6417L210.101 81.3094Z" fill="#FF4267"/>
<path d="M193.381 102.655C193.371 102.67 193.179 102.593 192.864 102.384C192.559 102.169 192.125 101.821 191.753 101.249C191.376 100.692 191.112 99.874 191.184 98.9796C191.221 98.0953 191.505 97.1088 192.12 96.2706C192.585 95.6163 193.185 95.1052 193.825 94.7627L193.753 94.8598C193.949 93.4031 194.13 92.1508 194.27 91.2615C194.409 90.3721 194.502 89.8558 194.533 89.8558C194.564 89.8609 194.523 90.3874 194.43 91.2819C194.337 92.1764 194.192 93.4338 194.011 94.8905L194.006 94.9518L193.939 94.9876C193.365 95.3045 192.781 95.8003 192.347 96.4188C191.768 97.2161 191.489 98.1413 191.443 98.9847C191.36 99.8332 191.582 100.59 191.918 101.137C192.249 101.694 192.652 102.051 192.926 102.287C193.216 102.532 193.391 102.639 193.381 102.655Z" fill="#455A64"/>
<path d="M194.285 91.9514C194.218 91.9821 193.98 91.6447 193.758 91.1949C193.536 90.7451 193.407 90.3516 193.479 90.3158C193.546 90.2851 193.784 90.6225 194.006 91.0723C194.228 91.5221 194.358 91.9156 194.285 91.9514Z" fill="#455A64"/>
<path d="M209.811 81.4475L210.551 64.7437L203.842 59.7192L197.743 62.6685C197.743 62.6685 197.542 70.2384 197.743 73.5198C197.945 76.8013 201.294 77.154 201.294 77.154C201.294 77.154 201.216 79.0758 201.139 81.0999C201.046 83.5483 203.041 85.5723 205.516 85.5519C207.827 85.5263 209.713 83.7272 209.811 81.4475Z" fill="#E5BAAB"/>
<path d="M198.41 68.1826C198.41 68.4124 198.601 68.6013 198.834 68.6013C199.066 68.6013 199.258 68.4124 199.258 68.1826C199.258 67.9528 199.066 67.7639 198.834 67.7639C198.601 67.7639 198.41 67.9528 198.41 68.1826Z" fill="#263238"/>
<path d="M198.002 67.7281C198.058 67.7843 198.368 67.5187 198.828 67.4932C199.283 67.4626 199.63 67.6873 199.676 67.626C199.702 67.6005 199.645 67.4983 199.49 67.3962C199.34 67.2941 199.092 67.2022 198.808 67.2175C198.524 67.2328 198.286 67.3554 198.151 67.4728C198.017 67.5953 197.971 67.7026 198.002 67.7281Z" fill="#263238"/>
<path d="M203.335 68.1826C203.335 68.4124 203.527 68.6013 203.759 68.6013C203.992 68.6013 204.183 68.4124 204.183 68.1826C204.183 67.9528 203.992 67.7639 203.759 67.7639C203.527 67.7639 203.335 67.9528 203.335 68.1826Z" fill="#263238"/>
<path d="M203.072 67.7281C203.129 67.7843 203.439 67.5187 203.899 67.4932C204.354 67.4626 204.7 67.6873 204.746 67.626C204.772 67.6005 204.715 67.4983 204.56 67.3962C204.41 67.2941 204.162 67.2022 203.878 67.2175C203.594 67.2328 203.356 67.3554 203.222 67.4728C203.087 67.5953 203.046 67.7026 203.072 67.7281Z" fill="#263238"/>
<path d="M202.932 71.9762C202.364 72.2573 201.356 72.656 200.72 72.7276C200.72 72.7276 201.284 73.5249 202.235 73.1518C203.222 72.7685 202.932 71.9762 202.932 71.9762Z" fill="white"/>
<path d="M201.294 77.1541C201.294 77.1541 203.532 77.1796 205.692 75.6871C205.692 75.6871 204.695 78.0997 201.366 77.9617L201.294 77.1541Z" fill="#D78776"/>
<path d="M220.21 74.1792C219.916 74.1945 219.476 74.1485 219.006 73.9083C218.531 73.6783 218.065 73.2438 217.693 72.6509C217.316 72.0631 217.027 71.3322 216.711 70.5706C216.091 69.0423 215.626 67.6264 215.306 66.594C215.254 66.4304 215.212 66.2822 215.166 66.139C215.14 65.9653 215.109 65.8068 215.078 65.6892C213.269 58.8452 207.181 57.5673 205.976 57.5673C204.684 57.5673 202.426 56.8671 199.133 60.2457C198.58 60.813 198.182 61.3855 197.883 61.9478C197.035 63.0007 196.585 64.1661 196.415 65.0401C196.213 66.0419 196.301 66.6706 196.337 66.6706C196.399 66.6706 196.41 66.0522 196.668 65.1014C196.797 64.6261 196.999 64.0638 197.304 63.4863C196.823 65.6075 197.64 67.2686 197.64 67.2686L198.818 66.9466L203.046 65.5257C202.663 64.2325 203.227 62.6224 203.547 61.8711L203.578 61.8404C204.545 66.7524 209.165 67.2073 209.165 67.2073L209.946 77.9564C215.564 76.7706 215.44 69.3336 215.404 67.8207C215.657 68.6743 215.988 69.6505 216.406 70.6728C216.722 71.4344 217.021 72.1755 217.435 72.7889C217.838 73.4074 218.37 73.8674 218.892 74.0872C219.414 74.3172 219.895 74.3325 220.205 74.2814C220.515 74.2201 220.665 74.1229 220.66 74.1076C220.665 74.1025 220.505 74.1587 220.21 74.1792Z" fill="#263238"/>
<path d="M201.418 71.5466C201.418 71.5211 201.134 71.4904 200.668 71.4546C200.55 71.4495 200.436 71.4342 200.415 71.3473C200.384 71.2604 200.431 71.1275 200.482 70.9844C200.581 70.6879 200.684 70.3761 200.798 70.049C201.015 69.3794 201.201 68.7763 201.33 68.3316C201.459 67.8869 201.521 67.6109 201.501 67.6058C201.475 67.6007 201.366 67.8614 201.206 68.2958C201.046 68.7252 200.839 69.3283 200.622 69.9928C200.519 70.3199 200.415 70.6368 200.322 70.9333C200.281 71.0713 200.214 71.2297 200.276 71.4035C200.312 71.4904 200.395 71.5517 200.472 71.5671C200.544 71.5875 200.612 71.5824 200.668 71.5824C201.134 71.5824 201.418 71.5722 201.418 71.5466Z" fill="#263238"/>
<path d="M210.902 71.4088C210.881 70.8619 210.881 70.2996 211.078 69.7885C211.279 69.2774 211.719 68.8276 212.272 68.7713C212.907 68.7049 213.517 69.2263 213.621 69.8498C213.719 70.4734 213.357 71.1174 212.799 71.4292C212.246 71.7359 211.538 71.7308 210.954 71.4804" fill="#E5BAAB"/>
<path d="M211.868 70.9329C211.889 70.8971 212.049 70.9789 212.282 70.9073C212.52 70.8511 212.757 70.5853 212.778 70.2071C212.794 70.0231 212.752 69.8544 212.659 69.7675C212.566 69.6806 212.416 69.6551 212.297 69.6602C212.049 69.6806 211.874 69.7471 211.858 69.7062C211.848 69.6806 211.972 69.5528 212.266 69.471C212.416 69.4404 212.628 69.4302 212.825 69.5784C213.021 69.7368 213.068 69.9975 213.052 70.2275C213.037 70.4626 212.949 70.6824 212.804 70.8409C212.664 70.9993 212.473 71.0811 212.313 71.0964C211.993 71.1271 211.843 70.9533 211.868 70.9329Z" fill="#D78776"/>
<path d="M206.783 201.467V196.683L215.843 196.626L215.915 203.624L215.352 203.665C212.851 203.818 202.633 204.268 200.958 203.777C199.097 203.23 206.783 201.467 206.783 201.467Z" fill="#FF4267"/>
<path d="M200.751 203.342C200.751 203.256 204.142 203.189 208.323 203.189C212.504 203.189 215.895 203.256 215.895 203.342C215.895 203.424 212.504 203.496 208.323 203.496C204.142 203.496 200.751 203.424 200.751 203.342Z" fill="#263238"/>
<path d="M206.628 202.442C206.55 202.483 206.375 202.309 206.194 202.08C206.013 201.85 205.894 201.635 205.951 201.574C206.008 201.513 206.245 201.64 206.437 201.891C206.633 202.146 206.7 202.401 206.628 202.442Z" fill="#263238"/>
<path d="M206.049 202.76C205.966 202.791 205.806 202.576 205.64 202.3C205.475 202.024 205.361 201.779 205.429 201.722C205.496 201.671 205.728 201.845 205.904 202.141C206.085 202.443 206.126 202.729 206.049 202.76Z" fill="#263238"/>
<path d="M213.161 203.307C213.124 203.281 213.197 203.113 213.357 202.862C213.517 202.612 213.765 202.274 214.153 201.993C214.54 201.712 214.99 201.6 215.305 201.625C215.626 201.646 215.791 201.768 215.776 201.799C215.76 201.845 215.585 201.804 215.311 201.84C215.042 201.871 214.675 201.993 214.334 202.239C213.993 202.484 213.729 202.781 213.533 202.99C213.331 203.21 213.197 203.333 213.161 203.307Z" fill="#263238"/>
<path d="M206.597 201.543C206.638 201.472 206.845 201.508 207.072 201.584C207.3 201.666 207.481 201.763 207.47 201.845C207.46 201.926 207.227 201.962 206.969 201.87C206.71 201.789 206.555 201.615 206.597 201.543Z" fill="#263238"/>
<path d="M206.741 201.083C206.752 201.001 206.995 200.935 207.284 200.935C207.579 200.94 207.816 201.012 207.822 201.093C207.827 201.175 207.584 201.241 207.279 201.241C206.974 201.236 206.731 201.165 206.741 201.083Z" fill="#263238"/>
<path d="M198.689 118.454L193.722 119.271L196.58 122.747C197.402 139.119 197.2 154.974 197.96 162.881C198.074 164.082 203.201 201.748 202.694 200.864L217.786 201.487L213.279 163.663L215.414 130.066C217.729 126.1 218.406 121.398 217.306 116.946L216.933 115.433" fill="#455A64"/>
<path d="M209.093 59.3308C208.344 59.0445 207.734 58.3954 207.542 57.6236C207.351 56.8518 207.615 55.9778 208.225 55.4615C208.84 54.9453 209.786 54.843 210.473 55.2519C211.036 55.5842 211.377 56.1924 211.589 56.8058C211.734 57.2147 211.832 57.6594 211.724 58.0785C211.564 58.7072 210.964 59.1519 210.333 59.3206C209.703 59.4892 209.031 59.433 208.38 59.3717" fill="#263238"/>
<path d="M222.412 68.4391C222.381 68.434 222.531 68.1989 222.443 67.7695C222.396 67.5599 222.288 67.3095 222.081 67.0846C221.88 66.8597 221.569 66.6808 221.192 66.5786C220.815 66.4763 220.381 66.4559 219.916 66.4866C219.45 66.5172 218.944 66.599 218.396 66.6092C217.853 66.6195 217.243 66.5479 216.716 66.2157C216.163 65.8834 215.895 65.2496 215.714 64.6772C215.357 63.522 214.747 62.5304 214.06 61.7433C213.367 60.9561 212.607 60.3785 211.92 59.9747C210.535 59.1723 209.511 59.0445 209.532 58.9831C209.532 58.9729 209.594 58.978 209.713 58.9985C209.832 59.0189 210.008 59.0394 210.225 59.1007C210.669 59.2029 211.295 59.4227 212.013 59.8061C212.726 60.1945 213.527 60.7721 214.246 61.5746C214.964 62.3719 215.605 63.4096 215.972 64.5903C216.158 65.1627 216.396 65.7045 216.861 65.9908C217.316 66.2821 217.879 66.3639 218.391 66.3588C218.913 66.3537 219.419 66.2821 219.9 66.2617C220.381 66.2361 220.841 66.2668 221.244 66.3946C221.647 66.5121 221.983 66.7268 222.195 66.9875C222.412 67.243 222.51 67.5242 222.546 67.7542C222.577 67.9842 222.541 68.1682 222.5 68.2806C222.464 68.3931 222.417 68.4442 222.412 68.4391Z" fill="#263238"/>
<path d="M212.866 71.3784C212.882 71.3528 213.114 71.547 213.114 71.9917C213.109 72.2013 213.021 72.4773 212.799 72.6766C212.587 72.876 212.251 73.0038 211.905 72.9526C211.558 72.8964 211.284 72.6664 211.145 72.4108C211 72.1502 211.005 71.8639 211.073 71.6646C211.212 71.2455 211.496 71.133 211.502 71.1637C211.533 71.1943 211.326 71.3579 211.264 71.7106C211.233 71.8844 211.248 72.0991 211.372 72.2882C211.486 72.4773 211.703 72.646 211.956 72.6869C212.21 72.7277 212.463 72.6357 212.639 72.4926C212.814 72.3495 212.897 72.1502 212.928 71.9764C212.969 71.6186 212.825 71.3988 212.866 71.3784Z" fill="#E0E0E0"/>
<path d="M211.527 59.9747C211.46 60.0309 210.798 59.2029 209.661 58.6151C208.529 58.0119 207.465 57.9352 207.475 57.8535C207.465 57.787 208.597 57.741 209.791 58.3748C210.99 58.9933 211.589 59.9491 211.527 59.9747Z" fill="#E8505B"/>
<path d="M213.455 70.7547C213.455 70.719 213.6 70.7088 213.693 70.8773C213.734 70.9539 213.755 71.0764 213.698 71.199C213.636 71.3266 213.491 71.4083 213.347 71.4134C213.202 71.4185 213.057 71.3521 212.985 71.2449C212.907 71.1428 212.897 71.0305 212.907 70.9488C212.933 70.7752 213.031 70.7139 213.057 70.7394C213.093 70.7598 213.073 70.8415 213.104 70.9437C213.135 71.0509 213.207 71.1479 213.341 71.1377C213.471 71.1326 213.522 71.0458 213.512 70.9386C213.507 70.8415 213.445 70.7905 213.455 70.7547Z" fill="#E0E0E0"/>
<path d="M214.65 91.762C194.806 96.1156 184.639 87.0419 183.268 85.7019C183.268 85.7019 183.239 85.5673 183.186 85.6215C183.133 85.568 183.106 85.7027 183.106 85.7027C181.757 87.0567 171.742 96.2339 151.827 92.0841C151.827 92.0841 149.068 127.436 160.775 141.793C173.28 157.127 183.765 161.728 183.817 161.688C183.87 161.728 194.368 157.107 206.527 141.559C217.902 127.011 214.65 91.762 214.65 91.762Z" fill="white"/>
<path d="M211.771 95.412C193.763 99.2897 184.539 91.2124 183.294 90.0196C183.294 90.0196 183.268 89.8999 183.221 89.948C183.172 89.9004 183.148 90.0203 183.148 90.0203C181.924 91.2259 172.834 99.3969 154.763 95.7043C154.763 95.7043 152.254 127.178 162.876 139.958C174.221 153.609 183.732 158.546 183.779 158.51C183.827 158.546 193.357 153.589 204.393 139.746C214.717 126.794 211.771 95.412 211.771 95.412Z" fill="#070054"/>
<g opacity="0.02">
<path opacity="0.02" d="M183.194 93.1347C183.194 93.1347 183.219 93.0085 183.27 93.0586C183.32 93.0079 183.347 93.1339 183.347 93.1339C184.627 94.3655 193.956 102.565 212.111 99.0507C211.994 95.8301 211.804 93.8147 211.804 93.8147C193.784 97.6975 184.546 89.5766 183.3 88.3772C183.3 88.3772 183.274 88.257 183.227 88.3053C183.178 88.2574 183.154 88.3778 183.154 88.3778C181.929 89.5881 172.839 97.7902 154.751 94.0679C154.751 94.0679 154.592 96.0841 154.526 99.3039C172.752 102.664 181.936 94.378 183.194 93.1347Z" fill="black"/>
</g>
<path d="M206.54 104.176C192.917 107.172 184.319 100.651 183.378 99.7336C183.378 99.7336 183.359 99.6414 183.323 99.6786C183.286 99.6419 183.268 99.7342 183.268 99.7342C182.341 100.663 173.925 107.271 160.26 104.442C160.26 104.442 159.876 128.35 167.901 138.177C176.472 148.673 183.664 151.819 183.7 151.791C183.736 151.818 190.944 148.645 199.301 137.985C207.118 128.011 206.54 104.176 206.54 104.176Z" fill="#152146"/>
<path d="M209.92 80.9312C209.936 80.9312 209.982 81.1254 209.977 81.4832C209.977 81.841 209.91 82.3675 209.677 82.9706C209.439 83.5686 209.021 84.2484 208.344 84.8004C207.677 85.3576 206.747 85.7307 205.744 85.7972C204.741 85.8534 203.77 85.5927 203.041 85.1173C202.307 84.6471 201.806 84.0235 201.495 83.4613C201.191 82.8888 201.061 82.3777 201.015 82.0199C200.968 81.6621 200.994 81.4628 201.005 81.4628C201.067 81.4474 201.03 82.2755 201.666 83.3642C201.987 83.8957 202.478 84.4733 203.175 84.9027C203.868 85.3371 204.777 85.5723 205.723 85.5211C206.669 85.4598 207.543 85.1173 208.178 84.6062C208.819 84.0951 209.238 83.4613 209.491 82.899C209.992 81.7439 209.858 80.9261 209.92 80.9312Z" fill="#455A64"/>
<path d="M208.835 198.068C208.83 198.068 208.819 198.022 208.804 197.93C208.788 197.822 208.768 197.689 208.742 197.521C208.69 197.142 208.623 196.616 208.535 195.952C208.359 194.587 208.121 192.614 207.848 190.166C207.3 185.279 206.623 178.517 206.013 171.039C205.408 163.556 204.984 156.778 204.736 151.866C204.612 149.413 204.524 147.425 204.478 146.05C204.457 145.38 204.442 144.848 204.431 144.465C204.431 144.296 204.426 144.164 204.426 144.051C204.426 143.959 204.431 143.913 204.431 143.908C204.436 143.908 204.442 143.954 204.452 144.046C204.462 144.153 204.473 144.291 204.483 144.455C204.509 144.838 204.54 145.365 204.581 146.034C204.664 147.43 204.783 149.408 204.927 151.846C205.222 156.753 205.677 163.53 206.287 171.008C206.897 178.486 207.543 185.243 208.039 190.135C208.292 192.563 208.494 194.536 208.638 195.926C208.706 196.596 208.757 197.122 208.793 197.5C208.809 197.669 208.819 197.802 208.83 197.909C208.84 198.022 208.84 198.068 208.835 198.068Z" fill="#263238"/>
<path d="M220.21 98.2637L211.346 92.4982C211.346 92.4982 207.01 104.847 205.682 104.97C198.322 105.634 190.445 103.222 187.685 102.266C187.406 101.954 187.086 101.581 186.729 101.121C186.424 100.727 186.192 100.283 186.037 99.8125C185.851 99.24 185.628 98.4733 185.644 98.0133C185.659 97.4459 184.972 97.1546 184.651 97.5635C184.331 97.9724 184.253 99.5314 184.977 101.208C185.706 102.884 183.132 101.55 182.186 101.08C181.24 100.61 178.243 99.2911 177.87 99.4649C177.317 99.7205 177.493 100.349 178.449 100.799C179.416 101.254 182.176 102.787 181.902 103.268C181.633 103.743 176.847 101.285 176.847 101.285C176.847 101.285 175.912 100.595 175.576 101.141C174.971 102.128 180.248 104.367 180.754 104.571C181.106 104.709 180.827 105.246 180.455 105.077C180.072 104.903 175.741 102.516 175.116 103.513C174.635 104.28 179.442 105.399 180.062 106.386C180.682 107.372 176.506 105.169 176.077 105.921C175.917 106.202 175.834 106.432 178.423 107.352C179.679 107.801 182.041 108.348 184.181 108.808L184.171 108.834C184.171 108.834 210.561 120.518 215.554 109.243C220.862 97.2517 220.21 98.2637 220.21 98.2637Z" fill="#E5BAAB"/>
<path d="M214.386 81.3811C214.386 81.3811 222.454 82.3216 221.596 91.8082C220.727 101.484 216.68 108.63 216.68 108.63L206.106 103.14C208.478 98.3865 210.297 93.4694 211.44 88.3479L214.386 81.3811Z" fill="#FF4267"/>
<path d="M210.824 91.1335C210.845 91.1386 210.809 91.3175 210.737 91.6293C210.664 91.9462 210.54 92.396 210.375 92.9532C210.049 94.0623 209.543 95.5855 208.891 97.2314C208.235 98.8772 207.558 100.329 207.031 101.361C206.767 101.878 206.545 102.292 206.38 102.573C206.219 102.854 206.121 103.007 206.1 102.997C206.064 102.976 206.369 102.332 206.85 101.28C207.331 100.227 207.977 98.7699 208.628 97.1342C209.279 95.4986 209.811 93.9959 210.184 92.9021C210.561 91.8031 210.788 91.1233 210.824 91.1335Z" fill="#455A64"/>
<path d="M210.824 91.1335C210.845 91.1386 210.809 91.3175 210.737 91.6293C210.664 91.9462 210.54 92.396 210.375 92.9532C210.049 94.0623 209.543 95.5855 208.891 97.2314C208.235 98.8772 207.558 100.329 207.031 101.361C206.767 101.878 206.545 102.292 206.38 102.573C206.219 102.854 206.121 103.007 206.1 102.997C206.064 102.976 206.369 102.332 206.85 101.28C207.331 100.227 207.977 98.7699 208.628 97.1342C209.279 95.4986 209.811 93.9959 210.184 92.9021C210.561 91.8031 210.788 91.1233 210.824 91.1335Z" fill="#455A64"/>
<g clip-path="url(#clip0_1_758)">
<path d="M93.1254 190.719C93.1254 189.606 93.4059 188.551 93.97 187.596C95.3196 185.311 98.1441 184 101.719 184C108.006 184 115.238 187.907 118.183 192.894C119.768 195.579 119.941 198.246 118.666 200.404C117.317 202.69 114.492 204 110.917 204C104.631 204 97.3987 200.093 94.4539 195.106C93.5701 193.61 93.1254 192.119 93.1254 190.719ZM114.981 197.271C114.981 196.471 114.571 195.626 114.264 195.106C112.125 191.484 106.38 188.424 101.719 188.424C99.8323 188.424 98.4006 188.941 97.8888 189.808C97.3063 190.794 97.942 192.165 98.3721 192.894C100.511 196.516 106.255 199.575 110.917 199.575C112.803 199.575 114.235 199.058 114.747 198.192C114.915 197.909 114.981 197.593 114.981 197.271Z" fill="#F05022"/>
<path d="M109.911 200.367C113.442 200.367 114.747 198.192 114.747 198.192C114.235 199.058 112.804 199.575 110.917 199.575C106.256 199.575 100.511 196.516 98.3724 192.894C97.9423 192.165 97.3066 190.795 97.8888 189.808C97.8888 189.808 96.7237 191.644 98.1385 194.18C100.187 197.851 105.249 200.367 109.911 200.367Z" fill="#F05022"/>
<path d="M154.05 196.878C155.342 196.878 156.39 195.854 156.39 194.59C156.39 193.327 155.342 192.303 154.05 192.303C154.048 192.303 154.046 192.303 154.044 192.303L154.044 192.303L116.838 192.303C116.493 192.303 116.147 192.526 115.883 192.973C115.356 193.866 115.356 195.315 115.883 196.208C116.147 196.655 116.493 196.878 116.838 196.878L154.044 196.878L154.044 196.878C154.046 196.878 154.048 196.878 154.05 196.878Z" fill="#F05022"/>
<path d="M145.736 195.051C146.598 195.051 147.646 194.459 148.076 193.73C148.296 193.359 148.311 193.025 148.162 192.785L148.164 192.784L144.838 187.14L144.755 187.003C144.745 186.983 144.735 186.964 144.721 186.948C144.655 186.85 144.579 186.759 144.495 186.678C144.149 186.336 143.667 186.125 143.138 186.125C142.413 186.125 141.781 186.518 141.455 187.097C141.309 187.364 141.226 187.666 141.226 187.991C141.226 188.313 141.309 188.619 141.455 188.882C141.476 188.918 141.499 188.954 141.519 188.99L144.864 194.67L144.866 194.669C145.008 194.905 145.309 195.051 145.736 195.051Z" fill="#F05022"/>
<path d="M136.419 195.051C137.281 195.051 138.329 194.459 138.759 193.73C138.978 193.359 138.994 193.025 138.845 192.785L138.847 192.784L134.961 186.168L134.878 186.032C134.868 186.012 134.858 185.993 134.845 185.977C134.778 185.879 134.702 185.788 134.619 185.707C134.273 185.365 133.791 185.154 133.262 185.154C132.537 185.154 131.905 185.547 131.579 186.126C131.432 186.393 131.349 186.695 131.349 187.021C131.349 187.342 131.432 187.648 131.579 187.912C131.599 187.947 131.622 187.983 131.642 188.019L135.547 194.67L135.549 194.669C135.691 194.905 135.992 195.051 136.419 195.051Z" fill="#F05022"/>
</g>
<path d="M243.009 62.9074L251.972 62.9082C251.766 62.631 251.57 62.3501 251.401 62.0617L250.277 60.1374C248.276 56.714 249.898 53.9377 253.899 53.9384C255.519 53.9382 257.28 54.3992 258.937 55.1679C256.913 50.5824 259.394 47.0285 264.931 47.0286C270.918 47.0284 278.198 51.1803 281.192 56.3029L282.874 59.1816C283.65 60.5083 284.054 61.767 284.135 62.9083L291.58 62.9076C293.8 62.9082 296.499 64.447 297.609 66.3462C298.719 68.2454 297.819 69.7848 295.599 69.7847L247.029 69.7854C244.809 69.7849 242.109 68.2461 240.999 66.3469C239.89 64.4477 240.789 62.9083 243.009 62.9074Z" fill="#F2F1F9"/>
<path d="M179.309 16.1815L184.86 16.182C184.733 16.0103 184.611 15.8363 184.507 15.6576L183.81 14.4657C182.571 12.3452 183.576 10.6256 186.054 10.6259C187.058 10.6258 188.148 10.9114 189.175 11.3875C187.921 8.54718 189.458 6.34586 192.887 6.34591C196.596 6.34581 201.105 8.91758 202.96 12.0906L204.002 13.8736C204.482 14.6954 204.733 15.4751 204.782 16.182L209.394 16.1816C210.769 16.1819 212.441 17.1351 213.128 18.3115C213.816 19.4879 213.259 20.4414 211.883 20.4414L181.798 20.4418C180.423 20.4415 178.751 19.4883 178.064 18.3119C177.376 17.1355 177.933 16.182 179.309 16.1815Z" fill="#F2F1F9"/>
<path d="M36.266 66.4987L43.0304 66.4994C42.8744 66.2905 42.7268 66.0779 42.5998 65.8606L41.751 64.4082C40.2408 61.824 41.4654 59.7295 44.4857 59.7296C45.7083 59.7297 47.0374 60.0778 48.2866 60.6574C46.7585 57.1966 48.6322 54.5147 52.8107 54.5147C57.3294 54.5147 62.8239 57.6485 65.0832 61.5144L66.3526 63.6864C66.9376 64.6875 67.243 65.638 67.3035 66.4996L72.9219 66.4993C74.5966 66.499 76.6341 67.6613 77.4717 69.0946C78.3093 70.5279 77.6303 71.69 75.9555 71.6903L39.2991 71.6888C37.6244 71.6891 35.5869 70.5268 34.7493 69.0935C33.9117 67.6602 34.5912 66.499 36.266 66.4987Z" fill="#F2F1F9"/>
<defs>
<clipPath id="clip0_1_758">
<rect width="20" height="63.2645" fill="white" transform="translate(156.39 184) rotate(90)"/>
</clipPath>
</defs>
</svg>
